<svg width="16" height="17" viewBox="0 0 16 17" fill="none" xmlns="http://www.w3.org/2000/svg">
<g clip-path="url(#clip0_40_10)">
<path d="M15.7821 7.97433L11.0208 3.21299C10.7303 2.92249 10.2591 2.92249 9.96863 3.21299C9.67807 3.50355 9.67807 3.97457 9.96863 4.26513L13.4599 7.75644H0.743959C0.333115 7.75644 0 8.08955 0 8.50039C0 8.91118 0.333115 9.24435 0.743959 9.24435H13.4599L9.96875 12.7357C9.67819 13.0262 9.67819 13.4972 9.96875 13.7878C10.114 13.933 10.3044 14.0057 10.4948 14.0057C10.6852 14.0057 10.8756 13.933 11.0209 13.7878L15.7821 9.02646C16.0727 8.7359 16.0727 8.26489 15.7821 7.97433Z" fill="white"/>
</g>
<defs>
<clipPath id="clip0_40_10">
<rect width="16" height="16" fill="white" transform="translate(0 0.5)"/>
</clipPath>
</defs>
</svg>
