<svg width="14" height="14" viewBox="0 0 14 14" fill="none" xmlns="http://www.w3.org/2000/svg">
  <path d="M12.7211 0.219428L7 5.94054L1.27889 0.219428C0.986321 -0.0731428 0.511999 -0.0731428 0.219428 0.219428C-0.0731428 0.511999 -0.0731428 0.986322 0.219428 1.27889L5.94054 7L0.219428 12.7211C-0.0731428 13.0137 -0.0731428 13.488 0.219428 13.7806C0.511999 14.0731 0.986321 14.0731 1.27889 13.7806L7 8.05946L12.7211 13.7806C13.0137 14.0731 13.488 14.0731 13.7806 13.7806C14.0731 13.488 14.0731 13.0137 13.7806 12.7211L8.05946 7L13.7806 1.27889C14.0731 0.986322 14.0731 0.511999 13.7806 0.219428C13.488 -0.0731428 13.0137 -0.0731428 12.7211 0.219428Z" fill="white" />
</svg>