<svg width="41" height="42" viewBox="0 0 41 42" fill="none" xmlns="http://www.w3.org/2000/svg">
<path d="M0.446558 19.4655C0.448694 19.468 0.450593 19.4708 0.452807 19.4731C0.453124 19.4735 0.453361 19.4738 0.453678 19.4742L19.9132 40.9905C20.0582 41.1508 20.278 41.2509 20.5 41.2509C20.7212 41.2509 20.9406 41.152 21.0867 40.9905L40.5462 19.4742C40.5465 19.4739 40.5468 19.4735 40.5471 19.4731C40.5493 19.4707 40.5511 19.468 40.5533 19.4655C40.8069 19.1771 40.8135 18.7535 40.5834 18.4584C40.5812 18.4555 40.5795 18.4523 40.5772 18.4495L34.2489 10.5391C34.0989 10.3514 33.8715 10.2422 33.6312 10.2422C30.4064 10.2422 9.99266 10.2422 7.3687 10.2422C7.12839 10.2422 6.90112 10.3514 6.75098 10.5391L0.422669 18.4495C0.420375 18.4523 0.418793 18.4555 0.416499 18.4584C0.184012 18.7566 0.195878 19.1804 0.446558 19.4655ZM16.2015 11.8243H24.7983L28.5953 18.1526H12.4045L16.2015 11.8243ZM12.221 19.7347H28.7787L20.4999 38.5002L12.221 19.7347ZM30.508 19.7347H38.1775L23.2037 36.2909L30.508 19.7347ZM10.4918 19.7347L17.796 36.2909L2.82229 19.7347H10.4918ZM38.3136 18.1526H30.4402L26.6432 11.8243H33.2509L38.3136 18.1526ZM7.7488 11.8243H14.3565L10.5595 18.1526H2.68615L7.7488 11.8243Z" fill="white" stroke="white" stroke-width="0.3"/>
<path d="M20.5 7.07831C20.9369 7.07831 21.291 6.72416 21.291 6.28727V1.54104C21.291 1.10415 20.9369 0.75 20.5 0.75C20.0631 0.75 19.709 1.10415 19.709 1.54104V6.28727C19.709 6.72416 20.0631 7.07831 20.5 7.07831Z" fill="white" stroke="white" stroke-width="0.3"/>
<path d="M25.8055 6.84666L28.9697 3.6825C29.2786 3.3736 29.2786 2.87272 28.9697 2.56374C28.6608 2.25476 28.1599 2.25484 27.8509 2.56374L24.6868 5.72789C24.3779 6.03679 24.3779 6.53768 24.6868 6.84666C24.9957 7.15556 25.4965 7.15564 25.8055 6.84666Z" fill="white" stroke="white" stroke-width="0.3"/>
<path d="M15.1927 6.84662C15.5016 7.15552 16.0025 7.15552 16.3115 6.84662C16.6204 6.53772 16.6204 6.03684 16.3115 5.72786L13.1473 2.56371C12.8384 2.25481 12.3376 2.25481 12.0286 2.56371C11.7196 2.87261 11.7197 3.37349 12.0286 3.68247L15.1927 6.84662Z" fill="white" stroke="white" stroke-width="0.3"/>
</svg>
