<svg width="77" height="54" viewBox="0 0 77 54" fill="none" xmlns="http://www.w3.org/2000/svg">
<path fill-rule="evenodd" clip-rule="evenodd" d="M1 9.18418C1 10.2887 1.89543 11.1842 3 11.1842H12.301V51C12.301 52.1046 13.1964 53 14.301 53H18.6251C19.7297 53 20.6251 52.1046 20.6251 51V11.184H56.7874V51C56.7874 52.1046 57.6828 53 58.7874 53H63.1115C64.216 53 65.1115 52.1046 65.1115 51V11.1845H74.4123C75.5169 11.1845 76.4123 10.289 76.4123 9.18446V3C76.4123 1.89543 75.5169 1 74.4123 1H3C1.89543 1 1 1.89543 1 3V9.18418ZM18.498 11.1842H14.4239V51.2749H18.498V11.1842ZM58.9142 11.1845V51.2749H62.9884V11.1845H58.9142ZM4.60891 9.06473H72.8034H74.2894V3.12001H3.12289V9.06473H4.60891Z" fill="black"/>
<path d="M72.8034 9.06473C71.9098 9.06473 6.057 9.06473 4.60891 9.06473M72.8034 9.06473H4.60891M72.8034 9.06473H74.2894V3.12001H3.12289V9.06473H4.60891M12.301 11.1842H3C1.89543 11.1842 1 10.2887 1 9.18418V3C1 1.89543 1.89543 1 3 1H74.4123C75.5169 1 76.4123 1.89543 76.4123 3V9.18446C76.4123 10.289 75.5169 11.1845 74.4123 11.1845H65.1115V51C65.1115 52.1046 64.216 53 63.1115 53H58.7874C57.6828 53 56.7874 52.1046 56.7874 51V11.184H20.6251V51C20.6251 52.1046 19.7297 53 18.6251 53H14.301C13.1964 53 12.301 52.1046 12.301 51V11.1842ZM14.4239 11.1842H18.498V51.2749H14.4239V11.1842ZM62.9884 51.2749V11.1845H58.9142V51.2749H62.9884Z" stroke="black" stroke-width="0.7" stroke-linecap="round" stroke-linejoin="round"/>
</svg>
