<svg width="57" height="56" viewBox="0 0 57 56" fill="none" xmlns="http://www.w3.org/2000/svg">
<path d="M1.5 54.4121V46.471M55.5 54.4121V46.471V32.7062V18.1474M1.5 46.471V32.7062M1.5 46.471H28.7647M1.5 32.7062V18.1474M1.5 32.7062H15.2647M1.5 18.1474V2.7C1.5 2.3134 1.8134 2 2.2 2H15.2647M1.5 18.1474H15.2647M55.5 18.1474V2.7C55.5 2.3134 55.1866 2 54.8 2L42.145 2M55.5 18.1474H42.1324M15.2647 32.7062V54.4121M15.2647 32.7062H28.7647M15.2647 32.7062V18.1474M28.7647 32.7062V46.471M28.7647 32.7062V18.1474M28.7647 46.471V54.4121M15.2647 2C15.2647 6.65183 15.2647 18.1474 15.2647 18.1474M15.2647 2H28.7647M15.2647 18.1474H28.7647M28.7647 2V18.1474M28.7647 2H42.145M28.7647 18.1474H42.1324M42.145 2C42.145 6.44508 42.1324 18.1474 42.1324 18.1474" stroke="black" stroke-width="2.5" stroke-linecap="round"/>
</svg>
