<svg width="54" height="58" viewBox="0 0 54 58" fill="none" xmlns="http://www.w3.org/2000/svg">
<path d="M1.5 2V23M1.5 56V47.5M1.5 47.5V23M1.5 47.5H10.5M52.5 2V23M52.5 23V56V47.5H43.5M52.5 23H27.5M1.5 23H13M13 23V8.5C13 8.22386 13.2239 8 13.5 8H20.25M13 23H27.5M27.5 23V8.5C27.5 8.22386 27.2761 8 27 8H20.25M10.5 47.5V35.5C10.5 35.2239 10.7239 35 11 35H16.75M10.5 47.5H23M23 47.5V35.5C23 35.2239 22.7761 35 22.5 35H16.75M23 47.5H28.5M28.5 47.5V33.5C28.5 33.2239 28.7239 33 29 33H36M28.5 47.5H43.5M43.5 47.5V33.5C43.5 33.2239 43.2761 33 43 33H36M20.25 8V11.7206M16.75 35V38M36 33V37" stroke="black" stroke-width="2.5" stroke-linecap="round"/>
</svg>
