<svg width="20" height="20" viewBox="0 0 20 20" fill="none" xmlns="http://www.w3.org/2000/svg">
<path d="M9.10566 2.5C5.4634 2.5 2.5 5.4634 2.5 9.10566C2.5 12.7481 5.4634 15.7113 9.10566 15.7113C12.7481 15.7113 15.7113 12.7481 15.7113 9.10566C15.7113 5.4634 12.7481 2.5 9.10566 2.5ZM9.10566 14.4918C6.13576 14.4918 3.71951 12.0756 3.71951 9.10569C3.71951 6.13579 6.13576 3.71951 9.10566 3.71951C12.0756 3.71951 14.4918 6.13576 14.4918 9.10566C14.4918 12.0756 12.0756 14.4918 9.10566 14.4918Z" fill="#ACACAC" stroke="#ACACAC" stroke-width="0.1"/>
<path d="M17.321 16.4588L13.825 12.9628C13.5868 12.7246 13.2011 12.7246 12.9628 12.9628C12.7246 13.2008 12.7246 13.587 12.9628 13.825L16.4588 17.321C16.5779 17.4401 16.7338 17.4996 16.8899 17.4996C17.0458 17.4996 17.2019 17.4401 17.321 17.321C17.5592 17.083 17.5592 16.6968 17.321 16.4588Z" fill="#ACACAC" stroke="#ACACAC" stroke-width="0.1"/>
</svg>
