<svg width="24" height="25" viewBox="0 0 24 25" fill="none" xmlns="http://www.w3.org/2000/svg">
  <path d="M16.0478 22.8545C13.6985 22.8545 11.3642 21.9491 9.60784 20.1927L4.66183 15.2467C1.59011 12.175 1.121 7.33541 3.54647 3.73927C3.88189 3.24186 4.42318 2.92304 5.03143 2.86447C5.66683 2.80315 6.29019 3.02642 6.74064 3.47688L9.60775 6.34403C10.4259 7.16218 10.4259 8.49345 9.60775 9.31163L8.61857 10.3008C8.34517 10.5743 8.34517 11.0166 8.61857 11.29L13.5645 16.236C13.8372 16.5087 14.281 16.5087 14.5537 16.236L15.5429 15.2468C16.361 14.4287 17.6923 14.4286 18.5105 15.2468L21.3776 18.1139C21.828 18.5643 22.0513 19.1873 21.99 19.8231C21.9315 20.4313 21.6126 20.9726 21.1153 21.308C19.5754 22.3466 17.8073 22.8545 16.0478 22.8545ZM5.16554 4.25692C5.05339 4.2677 4.84453 4.31647 4.70623 4.52146C2.65442 7.56367 3.05181 11.6582 5.65102 14.2575L10.597 19.2035C13.1963 21.8027 17.2909 22.2 20.3331 20.1481C20.538 20.0099 20.5867 19.801 20.5976 19.6889C20.6186 19.4704 20.5423 19.2569 20.3885 19.103L17.5214 16.2358C17.2487 15.9631 16.8049 15.9631 16.5322 16.2358L15.5429 17.2251C14.7248 18.0432 13.3935 18.0432 12.5754 17.2251L7.62938 12.2791C6.80933 11.4592 6.80914 10.1317 7.62938 9.31154L8.61857 8.32236C8.89131 8.04961 8.89131 7.60587 8.61857 7.33313L5.75146 4.46606C5.5979 4.31251 5.38452 4.23585 5.16554 4.25692Z" fill="#63BFBE" />
</svg>