<svg width="20" height="20" viewBox="0 0 20 20" fill="none" xmlns="http://www.w3.org/2000/svg">
<g clip-path="url(#clip0_2901_1558)">
<path d="M0.345161 9.81162L5.23613 12.3648C5.42531 12.4626 5.64865 12.4556 5.82948 12.3448L10.1829 9.69378L7.54787 12.1396C7.4137 12.2645 7.33703 12.4425 7.33703 12.6302V18.5877C7.33703 19.2162 8.10288 19.4807 8.46206 18.9814L10.5763 16.0371L15.8048 19.156C16.1714 19.3768 16.6415 19.1551 16.7265 18.716L19.9874 1.69455C20.0849 1.18303 19.599 0.765788 19.1474 0.95608L0.396829 8.61575C-0.106518 8.82175 -0.139019 9.55935 0.345161 9.81162ZM18.5373 2.61109L15.6714 17.5699L10.7171 14.6143C10.4471 14.4528 10.0996 14.5244 9.90794 14.7897L8.58706 16.6289V12.9244L15.7131 6.3113C16.2773 5.78844 15.6289 4.8588 14.9847 5.2551L5.49281 11.0354L2.16605 9.29923L18.5373 2.61109Z" fill="#63BFBE"/>
</g>
<defs>
<clipPath id="clip0_2901_1558">
<rect width="20" height="20" fill="white"/>
</clipPath>
</defs>
</svg>
