<svg width="24" height="24" viewBox="0 0 24 24" fill="none" xmlns="http://www.w3.org/2000/svg">
  <path d="M12 2C6.47715 2 2 6.47715 2 12C2 17.5228 6.47715 22 12 22C17.5228 22 22 17.5228 22 12C21.9941 6.47962 17.5204 2.0059 12 2ZM12 20.5714C7.26612 20.5714 3.42856 16.7339 3.42856 12C3.42856 7.26612 7.26612 3.42856 12 3.42856C16.7339 3.42856 20.5714 7.26612 20.5714 12C20.5663 16.7318 16.7318 20.5663 12 20.5714Z" fill="#63BFBE" />
  <path d="M12 5.57141C11.6055 5.57141 11.2857 5.89121 11.2857 6.28571V11.2857H6.28571C5.89121 11.2857 5.57141 11.6055 5.57141 12C5.57141 12.3945 5.89121 12.7143 6.28571 12.7143H12C12.3945 12.7143 12.7143 12.3945 12.7143 12V6.28571C12.7143 5.89121 12.3945 5.57141 12 5.57141Z" fill="#63BFBE" />
</svg>