<svg width="20" height="20" viewBox="0 0 20 20" fill="none" xmlns="http://www.w3.org/2000/svg">
<g clip-path="url(#clip0_2901_1560)">
<path d="M10.0005 0.0761719C4.53631 0.0761719 0.0761917 4.53591 0.0761917 10.0005C0.0761917 11.7252 0.585975 13.474 1.55321 15.0751L0.109531 19.1491C0.0350989 19.3596 0.0874341 19.5937 0.24444 19.7523C0.355313 19.8647 0.504953 19.9248 0.657694 19.9248C0.720884 19.9248 0.784462 19.9147 0.846101 19.8934L4.96159 18.4846C6.54327 19.4406 8.237 19.9248 10.0005 19.9248C12.6409 19.9248 15.1305 18.8897 17.0099 17.0099C18.8897 15.1305 19.9248 12.6409 19.9248 10.0005C19.9248 4.53629 15.465 0.0761719 10.0005 0.0761719ZM10.0005 18.7618C8.37268 18.7618 6.80727 18.2884 5.34732 17.3549C5.25273 17.2945 5.14379 17.2634 5.03408 17.2634C4.97089 17.2634 4.90693 17.2739 4.84567 17.2948L1.60787 18.4036L2.74296 15.1999C2.80266 15.0309 2.78134 14.8436 2.68481 14.6924C1.7389 13.2135 1.2392 11.5907 1.2392 10.0005C1.2392 5.16936 5.16938 1.23918 10.0005 1.23918C14.8316 1.23918 18.7618 5.16936 18.7618 10.0005C18.7618 14.8316 14.8316 18.7618 10.0005 18.7618Z" fill="#63BFBE"/>
<path d="M16.0743 12.3818L14.227 10.535C13.994 10.3016 13.6839 10.1733 13.3544 10.1733C13.0245 10.1733 12.7143 10.3016 12.4813 10.535L12.0196 10.9967C11.8824 11.1335 11.7006 11.2087 11.5071 11.2087C11.3137 11.2087 11.1315 11.1335 10.9946 10.9967L9.14739 9.14943C8.86516 8.86682 8.86516 8.40744 9.14739 8.12483L9.60949 7.66311C9.84248 7.42973 9.9708 7.1196 9.9708 6.79008C9.9708 6.46017 9.84248 6.15004 9.60949 5.91705L7.76225 4.06981C7.28076 3.58871 6.49767 3.58871 6.01619 4.06981L5.55447 4.53152C4.8935 5.1925 4.6733 6.5881 4.97956 8.17367C5.31063 9.88911 6.17087 11.5119 7.40171 12.7427C8.63218 13.9732 10.255 14.8334 11.9708 15.1649C13.1229 15.3874 14.7887 15.4134 15.6125 14.5896L16.0743 14.1279C16.3076 13.8949 16.436 13.5848 16.436 13.2548C16.436 12.9253 16.3076 12.6152 16.0743 12.3818ZM15.252 13.3056L14.7903 13.7673C14.4747 14.0829 13.4804 14.2721 12.191 14.0228C11.328 13.8561 9.66531 13.3615 8.22396 11.9201C6.78261 10.4788 6.28794 8.81604 6.12124 7.95309C6.04138 7.53944 6.00649 7.15643 6.00649 6.81644C6.00649 6.09577 6.16272 5.56854 6.37672 5.35415L6.83882 4.89244C6.85278 4.87848 6.871 4.87151 6.88922 4.87151C6.90744 4.87151 6.92604 4.87848 6.94 4.89244L8.78686 6.7393C8.80081 6.75325 8.80779 6.77031 8.80779 6.79008C8.80779 6.80985 8.80081 6.82652 8.78686 6.84048L8.32514 7.30258C7.58935 8.03837 7.58935 9.23588 8.32514 9.97168L10.1724 11.8189C10.5287 12.1756 11.0028 12.3717 11.5071 12.3717C12.0111 12.3717 12.4852 12.1756 12.8419 11.8189L13.3036 11.3572C13.3315 11.3293 13.3769 11.3293 13.4048 11.3572L15.252 13.2045C15.266 13.2184 15.2729 13.2355 15.2729 13.2548C15.273 13.2746 15.266 13.2917 15.252 13.3056Z" fill="#63BFBE"/>
</g>
<defs>
<clipPath id="clip0_2901_1560">
<rect width="20" height="20" fill="white"/>
</clipPath>
</defs>
</svg>
